<mxfile host="app.diagrams.net" modified="2024-04-12T13:21:38.714Z" agent="Mozilla/5.0 (X11; Linux x86_64; rv:109.0) Gecko/20100101 Firefox/115.0" etag="rrb7Y7dPK5uBcMAXlbsD" version="24.2.3" type="github">
  <diagram name="Page-1" id="vP7GKqEe_UTquGLLv8JT">
    <mxGraphModel dx="1390" dy="716" grid="1" gridSize="10" guides="1" tooltips="1" connect="1" arrows="1" fold="1" page="1" pageScale="1" pageWidth="850" pageHeight="1100" math="0" shadow="0">
      <root>
        <mxCell id="0" />
        <mxCell id="1" parent="0" />
        <mxCell id="70fF8Lxhg9ggZ1zZ8sWO-1" value="STM32F103" style="rounded=1;whiteSpace=wrap;html=1;" vertex="1" parent="1">
          <mxGeometry x="360" y="340" width="120" height="60" as="geometry" />
        </mxCell>
      </root>
    </mxGraphModel>
  </diagram>
</mxfile>
